<svg width="15" height="16" viewBox="0 0 15 16" fill="none" xmlns="http://www.w3.org/2000/svg">
<path d="M13.75 0H1.25C0.918479 0 0.600537 0.131696 0.366116 0.366116C0.131696 0.600537 0 0.918479 0 1.25V5.84219C0 12.843 5.92344 15.1656 7.10938 15.5602C7.36267 15.6463 7.63733 15.6463 7.89062 15.5602C9.07812 15.1656 15 12.843 15 5.84219V1.25C15 0.918479 14.8683 0.600537 14.6339 0.366116C14.3995 0.131696 14.0815 0 13.75 0ZM13.75 5.84297C13.75 11.9695 8.56641 14.0164 7.5 14.3727C6.44297 14.0203 1.25 11.975 1.25 5.84297V1.25H13.75V5.84297ZM3.93281 7.94219C3.81554 7.82491 3.74965 7.66585 3.74965 7.5C3.74965 7.33415 3.81554 7.17509 3.93281 7.05781C4.05009 6.94054 4.20915 6.87465 4.375 6.87465C4.54085 6.87465 4.69991 6.94054 4.81719 7.05781L6.25 8.49062L10.1828 4.55781C10.2409 4.49974 10.3098 4.45368 10.3857 4.42225C10.4616 4.39083 10.5429 4.37465 10.625 4.37465C10.7071 4.37465 10.7884 4.39083 10.8643 4.42225C10.9402 4.45368 11.0091 4.49974 11.0672 4.55781C11.1253 4.61588 11.1713 4.68482 11.2027 4.76069C11.2342 4.83656 11.2503 4.91788 11.2503 5C11.2503 5.08212 11.2342 5.16344 11.2027 5.23931C11.1713 5.31518 11.1253 5.38412 11.0672 5.44219L6.69219 9.81719C6.63414 9.8753 6.56521 9.9214 6.48934 9.95285C6.41346 9.9843 6.33213 10.0005 6.25 10.0005C6.16787 10.0005 6.08654 9.9843 6.01066 9.95285C5.93479 9.9214 5.86586 9.8753 5.80781 9.81719L3.93281 7.94219Z" fill="#212121"/>
</svg>
